# xmcd
#
# Track frame offsets: 
#        150
#        27731
#        48395
#        64423
#        79107
#        104225
#        120167
#        138486
#        161904
#        193535
#        214219
#        232977
#        256332
#        284150
#        305629
#
# Disc length: 4423 seconds
#
# Revision: 0
# Processed by: cddbd v1.5.2PL0 Copyright (c) Steve Scherf et al.
# Submitted via: ExactAudioCopyFreeDBPlugin 1.0
#
DISCID=ea11450f
DTITLE=Andrew Strong - The Commitments Years and Beyond
DYEAR=2013
DGENRE=Blues
TTITLE0=Gimme Some Lovin'
TTITLE1=Hard To Handle
TTITLE2=Yolanda
TTITLE3=In The Dark End Of The Street
TTITLE4=It's Your Thing
TTITLE5=In The Midnight Hour
TTITLE6=I Thank You
TTITLE7=Mustang Sally
TTITLE8=Take Me To The River
TTITLE9=Grits Ain't Groceries
TTITLE10=Show Me
TTITLE11=Treat Her Right
TTITLE12=Try A Little Tenderness
TTITLE13=Born To Be Wild
TTITLE14=Fire
EXTD=
EXTT0=
EXTT1=
EXTT2=
EXTT3=
EXTT4=
EXTT5=
EXTT6=
EXTT7=
EXTT8=
EXTT9=
EXTT10=
EXTT11=
EXTT12=
EXTT13=
EXTT14=
PLAYORDER=
